<svg xmlns="http://www.w3.org/2000/svg" viewBox="0 -18 172 170" fill="none">
  <path d="M44.4701 94.059C49.9984 87.4928 46.7659 75.7898 37.2499 67.9197C27.734 60.0495 15.5383 58.9924 10.0099 65.5586C4.4816 72.1248 7.71417 83.8278 17.2301 91.698C26.746 99.5681 38.9418 100.625 44.4701 94.059Z" fill="#303A5D"/>
  <path d="M155.838 91.6957C165.354 83.8256 168.586 72.1226 163.058 65.5564C157.53 58.9902 145.334 60.0473 135.818 67.9174C126.302 75.7876 123.069 87.4906 128.598 94.0568C134.126 100.623 146.322 99.5659 155.838 91.6957Z" fill="#303A5D"/>
  <path d="M86.534 133.859C121.005 133.859 148.948 109.66 148.948 79.808C148.948 49.9564 121.005 25.7568 86.534 25.7568C52.0634 25.7568 24.1195 49.9564 24.1195 79.808C24.1195 109.66 52.0634 133.859 86.534 133.859Z" fill="#303A5D"/>
  <path d="M40.1004 8.62261L37.8391 9.22311L49.9538 54.0362L52.2151 53.4357L40.1004 8.62261Z" fill="#303A5D"/>
  <path d="M132.962 8.62467L120.848 53.4378L123.109 54.0383L135.224 9.22517L132.962 8.62467Z" fill="#303A5D"/>
  <path d="M86.534 130.479C119.123 130.479 145.542 107.793 145.542 79.808C145.542 51.8233 119.123 29.1372 86.534 29.1372C53.9449 29.1372 27.5262 51.8233 27.5262 79.808C27.5262 107.793 53.9449 130.479 86.534 130.479Z" fill="#E9F3F4"/>
  <path d="M86.534 125.449C54.9782 125.449 29.1346 104.072 27.6016 77.2953C27.554 78.1276 27.5303 78.9678 27.5303 79.8119C27.5303 107.754 53.9998 130.483 86.538 130.483C119.076 130.483 145.546 107.75 145.546 79.8119C145.546 78.9678 145.522 78.1276 145.474 77.2953C143.933 104.068 118.09 125.449 86.534 125.449Z" fill="#C3D0E3"/>
  <path d="M130.651 56.687C124.967 51.8304 116.085 53.1378 105.802 54.6572C99.9669 55.517 93.3554 56.4907 86.534 56.4907C79.7127 56.4907 73.0973 55.517 67.2662 54.6572C56.9826 53.1417 48.0974 51.8304 42.4169 56.687C38.8319 59.7533 37.085 64.8651 37.085 72.313C37.085 92.8428 40.1669 104.794 47.0754 111.068C54.1741 117.515 63.9506 116.671 74.3015 115.775C78.2549 115.434 82.339 115.08 86.534 115.08C90.7291 115.08 94.8132 115.434 98.7666 115.775C102.336 116.086 105.838 116.388 109.185 116.388C115.543 116.388 121.342 115.296 125.997 111.068C132.905 104.794 135.987 92.8389 135.987 72.313C135.983 64.8612 134.24 59.7533 130.651 56.687Z" fill="#303A5D"/>
  <path d="M86.534 59.8672C61.1063 59.8672 40.4956 47.1111 40.4956 72.313C40.4956 72.9766 40.4996 73.6244 40.5075 74.2722C56.6063 88.5712 87.2431 92.8153 130.988 92.9135C132.022 87.5386 132.576 80.7896 132.576 72.313C132.572 47.1111 111.962 59.8672 86.534 59.8672Z" fill="#44517B"/>
  <path d="M62.1918 87.6799C67.7072 87.6799 72.1783 83.2485 72.1783 77.7821C72.1783 72.3157 67.7072 67.8843 62.1918 67.8843C56.6764 67.8843 52.2053 72.3157 52.2053 77.7821C52.2053 83.2485 56.6764 87.6799 62.1918 87.6799Z" fill="#26D6F6"/>
  <path d="M64.6873 70.3578C63.3087 70.3578 62.1917 71.465 62.1917 72.8313C62.1917 74.1975 63.3087 75.3047 64.6873 75.3047C66.0658 75.3047 67.1829 74.1975 67.1829 72.8313C67.1869 71.465 66.0658 70.3578 64.6873 70.3578Z" fill="white"/>
  <path d="M110.876 87.6799C116.392 87.6799 120.863 83.2485 120.863 77.7821C120.863 72.3157 116.392 67.8843 110.876 67.8843C105.361 67.8843 100.89 72.3157 100.89 77.7821C100.89 83.2485 105.361 87.6799 110.876 87.6799Z" fill="#26D6F6"/>
  <path d="M113.372 70.3578C111.993 70.3578 110.876 71.465 110.876 72.8313C110.876 74.1975 111.993 75.3047 113.372 75.3047C114.75 75.3047 115.867 74.1975 115.867 72.8313C115.867 71.465 114.75 70.3578 113.372 70.3578Z" fill="white"/>
  <path d="M46.6646 10.2098C47.3835 5.99797 44.5213 2.006 40.2718 1.29349C36.0222 0.580978 31.9944 3.41774 31.2755 7.62958C30.5567 11.8414 33.4188 15.8334 37.6684 16.5459C41.918 17.2584 45.9457 14.4217 46.6646 10.2098Z" fill="#303A5D"/>
  <path d="M33.69 5.89843C32.8739 7.29614 32.66 8.92549 33.0799 10.4842C33.4998 12.0428 34.51 13.3463 35.9202 14.1551C37.3304 14.9639 38.9744 15.1759 40.547 14.7597C42.1196 14.3436 43.4348 13.3424 44.2508 11.9447C45.0669 10.547 45.2808 8.91764 44.8609 7.35896C44.441 5.80028 43.4308 4.4968 42.0206 3.68802C41.0818 3.15014 40.04 2.87531 38.9823 2.87531C38.4515 2.87531 37.9206 2.94205 37.3938 3.08339C35.8212 3.49956 34.506 4.50073 33.69 5.89843Z" fill="#26D6F6"/>
  <path d="M34.9735 8.30122C35.837 6.82107 37.2275 5.76101 38.8952 5.31736C39.4498 5.16816 40.0162 5.09749 40.5787 5.09749C41.5493 5.09749 42.5039 5.32913 43.3913 5.75708C42.9476 5.14853 42.3772 4.63028 41.6998 4.24159C40.86 3.7626 39.9291 3.51526 38.9823 3.51526C38.507 3.51526 38.0316 3.57808 37.5642 3.69979C36.1579 4.07277 34.9814 4.96793 34.2525 6.21644C33.5236 7.46495 33.3295 8.92155 33.7098 10.3153C33.8089 10.6805 33.9475 11.0299 34.1139 11.3597C34.1297 10.2996 34.4189 9.24742 34.9735 8.30122Z" fill="#83F3FF"/>
  <path d="M141.786 10.2064C142.505 5.99459 139.643 2.00261 135.393 1.2901C131.144 0.577594 127.116 3.41437 126.397 7.62621C125.678 11.838 128.54 15.83 132.79 16.5425C137.04 17.255 141.067 14.4183 141.786 10.2064Z" fill="#303A5D"/>
  <path d="M128.817 5.89843C128.001 7.29614 127.787 8.92549 128.207 10.4842C128.627 12.0428 129.637 13.3463 131.047 14.1551C132.457 14.9639 134.101 15.1759 135.674 14.7597C137.247 14.3436 138.562 13.3424 139.378 11.9447C140.194 10.547 140.408 8.91764 139.988 7.35896C139.568 5.80028 138.558 4.4968 137.148 3.68802C136.209 3.15014 135.167 2.87531 134.109 2.87531C133.579 2.87531 133.048 2.94205 132.521 3.08339C130.944 3.49956 129.629 4.50073 128.817 5.89843Z" fill="#26D6F6"/>
  <path d="M130.097 8.30122C130.96 6.82107 132.351 5.76101 134.018 5.31736C134.573 5.16816 135.139 5.09749 135.702 5.09749C136.672 5.09749 137.627 5.32913 138.514 5.75708C138.071 5.14853 137.5 4.63028 136.823 4.24159C135.983 3.7626 135.052 3.51526 134.105 3.51526C133.63 3.51526 133.155 3.57808 132.687 3.69979C131.281 4.07277 130.104 4.96793 129.376 6.21644C128.647 7.46495 128.453 8.92155 128.833 10.3153C128.932 10.6805 129.071 11.0299 129.237 11.3597C129.257 10.2996 129.546 9.24742 130.097 8.30122Z" fill="#83F3FF"/>
</svg>
